<svg width="27" height="27" viewBox="0 0 27 27" fill="none" xmlns="http://www.w3.org/2000/svg">
<g clip-path="url(#clip0_15_198)">
<path d="M13.471 11.2397C12.113 11.2397 10.9878 12.3456 10.9878 13.723C10.9878 15.1004 12.0936 16.2062 13.471 16.2062C14.8485 16.2062 15.9543 15.081 15.9543 13.723C15.9543 12.365 14.8291 11.2397 13.471 11.2397ZM13.471 15.3138C12.598 15.3138 11.8802 14.596 11.8802 13.723C11.8802 12.85 12.598 12.1322 13.471 12.1322C14.3441 12.1322 15.0619 12.85 15.0619 13.723C15.0619 14.596 14.3441 15.3138 13.471 15.3138Z" fill="black"/>
<path d="M16.0514 11.7441C16.3621 11.7441 16.614 11.4922 16.614 11.1815C16.614 10.8708 16.3621 10.6189 16.0514 10.6189C15.7407 10.6189 15.4888 10.8708 15.4888 11.1815C15.4888 11.4922 15.7407 11.7441 16.0514 11.7441Z" fill="black"/>
<path d="M17.5062 9.72657C17.0018 9.20276 16.284 8.93115 15.4692 8.93115H11.4727C9.78489 8.93115 8.65967 10.0564 8.65967 11.7442V15.7213C8.65967 16.5555 8.93127 17.2733 9.47448 17.7971C9.99829 18.3015 10.6967 18.5537 11.4921 18.5537H15.4498C16.284 18.5537 16.9824 18.2821 17.4868 17.7971C18.0106 17.2927 18.2822 16.5749 18.2822 15.7407V11.7442C18.2822 10.9294 18.0106 10.231 17.5062 9.72657ZM17.4286 15.7407C17.4286 16.3421 17.2152 16.8271 16.866 17.1569C16.5168 17.4867 16.0318 17.6613 15.4498 17.6613H11.4921C10.9101 17.6613 10.4251 17.4867 10.0759 17.1569C9.72669 16.8077 9.55208 16.3227 9.55208 15.7213V11.7442C9.55208 11.1622 9.72669 10.6772 10.0759 10.328C10.4057 9.99817 10.9101 9.82357 11.4921 9.82357H15.4886C16.0706 9.82357 16.5556 9.99817 16.9048 10.3474C17.2346 10.6966 17.4286 11.1816 17.4286 11.7442V15.7407Z" fill="black"/>
</g>
<circle cx="13.5" cy="13.5" r="13" stroke="black"/>
<defs>
<clipPath id="clip0_15_198">
<rect width="11" height="11" fill="white" transform="translate(8 8)"/>
</clipPath>
</defs>
</svg>
