<svg width="19" height="17" viewBox="0 0 19 17" fill="none" xmlns="http://www.w3.org/2000/svg">
<path d="M9.50008 16.0525C9.26524 16.0531 9.03261 16.0072 8.81556 15.9175C8.59852 15.8279 8.40134 15.6962 8.23539 15.53L2.11977 9.41437C1.63666 8.92601 1.25556 8.34639 0.998676 7.70928C0.741794 7.07218 0.614264 6.39032 0.623517 5.70344C0.628171 5.07397 0.756967 4.4516 1.00253 3.87198C1.24809 3.29237 1.60558 2.76689 2.05454 2.32565C2.5035 1.88442 3.0351 1.53609 3.61889 1.30062C4.20268 1.06515 4.82719 0.947171 5.45664 0.953436C6.09737 0.946982 6.73286 1.06926 7.32544 1.31303C7.91802 1.55679 8.45561 1.91707 8.90633 2.3725L9.50008 2.96625L9.98695 2.47937C10.8277 1.6164 11.9526 1.08733 13.1535 0.990174C14.3543 0.893014 15.5497 1.23434 16.5182 1.95094C17.0695 2.3755 17.524 2.91264 17.8515 3.52661C18.179 4.14057 18.3719 4.81726 18.4174 5.51161C18.4629 6.20596 18.36 6.90203 18.1154 7.55348C17.8709 8.20493 17.4903 8.79681 16.9991 9.28969L10.7648 15.53C10.5988 15.6962 10.4016 15.8279 10.1846 15.9175C9.96755 16.0072 9.73492 16.0531 9.50008 16.0525ZM5.43289 2.135C4.48914 2.13404 3.58203 2.50029 2.90352 3.15625C2.5576 3.48907 2.28251 3.88837 2.09477 4.33017C1.90703 4.77197 1.81051 5.24715 1.81102 5.72719C1.80581 6.25522 1.90547 6.77903 2.10422 7.26825C2.30297 7.75748 2.59685 8.20239 2.96883 8.57719L9.08446 14.6928C9.13965 14.7485 9.20532 14.7926 9.27768 14.8228C9.35003 14.8529 9.42764 14.8684 9.50602 14.8684C9.5844 14.8684 9.66201 14.8529 9.73436 14.8228C9.80671 14.7926 9.87238 14.7485 9.92758 14.6928L16.1679 8.44656C16.5342 8.07252 16.8172 7.62521 16.9983 7.13402C17.1795 6.64282 17.2546 6.11886 17.2188 5.59656C17.1871 5.0689 17.0418 4.55433 16.7928 4.08805C16.5437 3.62177 16.1969 3.2148 15.776 2.895C15.0375 2.35047 14.1261 2.09299 13.2118 2.17055C12.2975 2.24811 11.4426 2.65541 10.8063 3.31656L9.92164 4.225C9.86645 4.28065 9.80078 4.32482 9.72842 4.35497C9.65607 4.38511 9.57846 4.40063 9.50008 4.40063C9.4217 4.40063 9.34409 4.38511 9.27174 4.35497C9.19938 4.32482 9.13371 4.28065 9.07852 4.225L8.06914 3.21562C7.37392 2.52644 6.43556 2.13831 5.45664 2.135H5.43289Z" fill="#101820"/>
</svg>
