<svg width="231" height="34" viewBox="0 0 231 34" fill="none" xmlns="http://www.w3.org/2000/svg">
<path d="M18.978 29.062V33H0.894V1.408H5.58V29.062H18.978ZM40.0884 10.648V33H37.5144C36.9277 33 36.5464 32.714 36.3704 32.142L36.0624 29.898C35.5784 30.4113 35.0724 30.8807 34.5444 31.306C34.0164 31.7313 33.4517 32.098 32.8504 32.406C32.249 32.6993 31.611 32.9267 30.9364 33.088C30.2617 33.264 29.5357 33.352 28.7584 33.352C27.5264 33.352 26.441 33.1467 25.5024 32.736C24.5784 32.3253 23.801 31.7533 23.1704 31.02C22.5397 30.272 22.063 29.3773 21.7404 28.336C21.4177 27.2947 21.2564 26.1433 21.2564 24.882V10.648H25.5684V24.882C25.5684 26.4807 25.935 27.7273 26.6684 28.622C27.4017 29.502 28.5237 29.942 30.0344 29.942C31.1344 29.942 32.161 29.6853 33.1144 29.172C34.0677 28.644 34.9624 27.9253 35.7984 27.016V10.648H40.0884ZM64.8205 33H60.6845C60.3472 33 60.0758 32.912 59.8705 32.736C59.6798 32.5453 59.5258 32.3473 59.4085 32.142L54.0185 23.628C53.9452 23.848 53.8718 24.0607 53.7985 24.266C53.7252 24.4713 53.6298 24.662 53.5125 24.838L48.5625 32.142C48.4158 32.3473 48.2472 32.5453 48.0565 32.736C47.8658 32.912 47.6165 33 47.3085 33H43.4805L51.2685 21.494L43.7885 10.648H47.9245C48.2618 10.648 48.5038 10.6993 48.6505 10.802C48.8118 10.9047 48.9512 11.0587 49.0685 11.264L54.3705 19.426C54.4438 19.206 54.5245 18.9933 54.6125 18.788C54.7005 18.568 54.8178 18.3407 54.9645 18.106L59.5185 11.352C59.7825 10.8827 60.1345 10.648 60.5745 10.648H64.5125L57.0325 21.296L64.8205 33ZM82.0661 19.338C82.0661 18.4873 81.9414 17.7027 81.6921 16.984C81.4574 16.2653 81.1054 15.642 80.6361 15.114C80.1668 14.586 79.5948 14.1753 78.9201 13.882C78.2454 13.5887 77.4681 13.442 76.5881 13.442C74.7841 13.442 73.3614 13.9627 72.3201 15.004C71.2934 16.0453 70.6408 17.49 70.3621 19.338H82.0661ZM85.6081 29.81C85.0801 30.426 84.4714 30.9613 83.7821 31.416C83.0928 31.856 82.3594 32.2153 81.5821 32.494C80.8048 32.7727 79.9981 32.978 79.1621 33.11C78.3408 33.242 77.5268 33.308 76.7201 33.308C75.1801 33.308 73.7501 33.0513 72.4301 32.538C71.1248 32.01 69.9881 31.2473 69.0201 30.25C68.0668 29.238 67.3188 27.9913 66.7761 26.51C66.2481 25.014 65.9841 23.298 65.9841 21.362C65.9841 19.8073 66.2261 18.3627 66.7101 17.028C67.1941 15.6787 67.8834 14.5053 68.7781 13.508C69.6874 12.5107 70.7948 11.726 72.1001 11.154C73.4054 10.582 74.8721 10.296 76.5001 10.296C77.8641 10.296 79.1181 10.5233 80.2621 10.978C81.4208 11.418 82.4181 12.0633 83.2541 12.914C84.0901 13.7647 84.7428 14.8133 85.2121 16.06C85.6961 17.3067 85.9381 18.7293 85.9381 20.328C85.9381 20.988 85.8648 21.4353 85.7181 21.67C85.5714 21.89 85.3001 22 84.9041 22H70.2521C70.2961 23.3347 70.4868 24.5007 70.8241 25.498C71.1614 26.4807 71.6234 27.302 72.2101 27.962C72.8114 28.622 73.5228 29.1133 74.3441 29.436C75.1654 29.7587 76.0821 29.92 77.0941 29.92C78.0474 29.92 78.8688 29.81 79.5581 29.59C80.2621 29.37 80.8634 29.1353 81.3621 28.886C81.8754 28.622 82.3008 28.38 82.6381 28.16C82.9901 27.94 83.2981 27.83 83.5621 27.83C83.9141 27.83 84.1854 27.962 84.3761 28.226L85.6081 29.81ZM116.7 1.408V33H112.014V18.766H95.5356V33H90.8276V1.408H95.5356V15.356H112.014V1.408H116.7ZM135.003 23.078C133.257 23.1367 131.776 23.276 130.559 23.496C129.341 23.7013 128.351 23.98 127.589 24.332C126.826 24.684 126.276 25.102 125.939 25.586C125.601 26.0553 125.433 26.5833 125.433 27.17C125.433 27.7273 125.521 28.2113 125.697 28.622C125.887 29.018 126.137 29.348 126.445 29.612C126.767 29.8613 127.141 30.0447 127.567 30.162C127.992 30.2793 128.454 30.338 128.953 30.338C129.613 30.338 130.214 30.272 130.757 30.14C131.314 30.008 131.835 29.8247 132.319 29.59C132.803 29.3407 133.265 29.04 133.705 28.688C134.145 28.336 134.577 27.9327 135.003 27.478V23.078ZM122.419 13.772C123.665 12.584 125.015 11.6967 126.467 11.11C127.933 10.5233 129.539 10.23 131.285 10.23C132.561 10.23 133.69 10.4427 134.673 10.868C135.655 11.2787 136.484 11.858 137.159 12.606C137.833 13.354 138.339 14.2487 138.677 15.29C139.029 16.3313 139.205 17.4827 139.205 18.744V33H137.291C136.865 33 136.543 32.934 136.323 32.802C136.103 32.6553 135.927 32.3913 135.795 32.01L135.333 30.052C134.761 30.58 134.196 31.0493 133.639 31.46C133.081 31.856 132.495 32.2007 131.879 32.494C131.277 32.7727 130.632 32.9853 129.943 33.132C129.253 33.2787 128.491 33.352 127.655 33.352C126.775 33.352 125.946 33.2347 125.169 33C124.406 32.7507 123.739 32.3767 123.167 31.878C122.595 31.3793 122.14 30.756 121.803 30.008C121.48 29.26 121.319 28.3873 121.319 27.39C121.319 26.51 121.553 25.6667 122.023 24.86C122.507 24.0387 123.284 23.3053 124.355 22.66C125.44 22.0147 126.848 21.4867 128.579 21.076C130.324 20.6653 132.465 20.4307 135.003 20.372V18.744C135.003 17.0573 134.643 15.796 133.925 14.96C133.206 14.124 132.15 13.706 130.757 13.706C129.818 13.706 129.026 13.8233 128.381 14.058C127.75 14.2927 127.2 14.5567 126.731 14.85C126.276 15.1287 125.873 15.3853 125.521 15.62C125.183 15.8547 124.831 15.972 124.465 15.972C124.171 15.972 123.915 15.8913 123.695 15.73C123.489 15.5687 123.321 15.378 123.189 15.158L122.419 13.772ZM149.238 27.5C149.942 28.424 150.704 29.0693 151.526 29.436C152.347 29.8027 153.242 29.986 154.21 29.986C156.204 29.986 157.737 29.2747 158.808 27.852C159.893 26.4293 160.436 24.2807 160.436 21.406C160.436 18.7513 159.959 16.808 159.006 15.576C158.052 14.3293 156.703 13.706 154.958 13.706C153.726 13.706 152.655 13.9847 151.746 14.542C150.851 15.0993 150.015 15.8913 149.238 16.918V27.5ZM149.238 13.728C150.162 12.7013 151.21 11.8727 152.384 11.242C153.557 10.6113 154.892 10.296 156.388 10.296C157.693 10.296 158.866 10.5527 159.908 11.066C160.964 11.5647 161.858 12.2907 162.592 13.244C163.325 14.1827 163.89 15.3267 164.286 16.676C164.682 18.0253 164.88 19.5507 164.88 21.252C164.88 23.056 164.652 24.6987 164.198 26.18C163.758 27.6613 163.12 28.93 162.284 29.986C161.462 31.042 160.458 31.8633 159.27 32.45C158.082 33.022 156.747 33.308 155.266 33.308C154.547 33.308 153.887 33.2347 153.286 33.088C152.684 32.956 152.127 32.758 151.614 32.494C151.115 32.23 150.653 31.9073 150.228 31.526C149.802 31.1447 149.399 30.712 149.018 30.228L148.82 32.098C148.702 32.6993 148.336 33 147.72 33H144.948V0.527998H149.238V13.728ZM174.143 10.648V33H169.853V10.648H174.143ZM174.957 3.74C174.957 4.136 174.876 4.51733 174.715 4.884C174.553 5.236 174.333 5.55133 174.055 5.83C173.791 6.094 173.475 6.30667 173.109 6.468C172.742 6.61466 172.361 6.688 171.965 6.688C171.569 6.688 171.195 6.61466 170.843 6.468C170.491 6.30667 170.175 6.094 169.897 5.83C169.633 5.55133 169.42 5.236 169.259 4.884C169.112 4.51733 169.039 4.136 169.039 3.74C169.039 3.32933 169.112 2.948 169.259 2.596C169.42 2.22933 169.633 1.914 169.897 1.65C170.175 1.37133 170.491 1.15866 170.843 1.012C171.195 0.850665 171.569 0.769999 171.965 0.769999C172.361 0.769999 172.742 0.850665 173.109 1.012C173.475 1.15866 173.791 1.37133 174.055 1.65C174.333 1.914 174.553 2.22933 174.715 2.596C174.876 2.948 174.957 3.32933 174.957 3.74ZM187.35 33.352C185.546 33.352 184.153 32.846 183.17 31.834C182.202 30.822 181.718 29.3773 181.718 27.5V14.124H179.122C178.873 14.124 178.66 14.0507 178.484 13.904C178.323 13.7427 178.242 13.508 178.242 13.2V11.462L181.872 10.956L182.84 4.29C182.899 4.04067 183.009 3.85 183.17 3.718C183.346 3.57133 183.566 3.498 183.83 3.498H186.008V11H192.344V14.124H186.008V27.214C186.008 28.094 186.221 28.754 186.646 29.194C187.086 29.6193 187.643 29.832 188.318 29.832C188.714 29.832 189.051 29.7807 189.33 29.678C189.623 29.5753 189.873 29.4653 190.078 29.348C190.283 29.216 190.459 29.0987 190.606 28.996C190.753 28.8933 190.885 28.842 191.002 28.842C191.149 28.842 191.259 28.8787 191.332 28.952C191.42 29.0107 191.508 29.1133 191.596 29.26L192.872 31.328C192.168 31.9733 191.332 32.472 190.364 32.824C189.396 33.176 188.391 33.352 187.35 33.352ZM208.307 23.078C206.562 23.1367 205.081 23.276 203.863 23.496C202.646 23.7013 201.656 23.98 200.893 24.332C200.131 24.684 199.581 25.102 199.243 25.586C198.906 26.0553 198.737 26.5833 198.737 27.17C198.737 27.7273 198.825 28.2113 199.001 28.622C199.192 29.018 199.441 29.348 199.749 29.612C200.072 29.8613 200.446 30.0447 200.871 30.162C201.297 30.2793 201.759 30.338 202.257 30.338C202.917 30.338 203.519 30.272 204.061 30.14C204.619 30.008 205.139 29.8247 205.623 29.59C206.107 29.3407 206.569 29.04 207.009 28.688C207.449 28.336 207.882 27.9327 208.307 27.478V23.078ZM195.723 13.772C196.97 12.584 198.319 11.6967 199.771 11.11C201.238 10.5233 202.844 10.23 204.589 10.23C205.865 10.23 206.995 10.4427 207.977 10.868C208.96 11.2787 209.789 11.858 210.463 12.606C211.138 13.354 211.644 14.2487 211.981 15.29C212.333 16.3313 212.509 17.4827 212.509 18.744V33H210.595C210.17 33 209.847 32.934 209.627 32.802C209.407 32.6553 209.231 32.3913 209.099 32.01L208.637 30.052C208.065 30.58 207.501 31.0493 206.943 31.46C206.386 31.856 205.799 32.2007 205.183 32.494C204.582 32.7727 203.937 32.9853 203.247 33.132C202.558 33.2787 201.795 33.352 200.959 33.352C200.079 33.352 199.251 33.2347 198.473 33C197.711 32.7507 197.043 32.3767 196.471 31.878C195.899 31.3793 195.445 30.756 195.107 30.008C194.785 29.26 194.623 28.3873 194.623 27.39C194.623 26.51 194.858 25.6667 195.327 24.86C195.811 24.0387 196.589 23.3053 197.659 22.66C198.745 22.0147 200.153 21.4867 201.883 21.076C203.629 20.6653 205.77 20.4307 208.307 20.372V18.744C208.307 17.0573 207.948 15.796 207.229 14.96C206.511 14.124 205.455 13.706 204.061 13.706C203.123 13.706 202.331 13.8233 201.685 14.058C201.055 14.2927 200.505 14.5567 200.035 14.85C199.581 15.1287 199.177 15.3853 198.825 15.62C198.488 15.8547 198.136 15.972 197.769 15.972C197.476 15.972 197.219 15.8913 196.999 15.73C196.794 15.5687 196.625 15.378 196.493 15.158L195.723 13.772ZM224.948 33.352C223.144 33.352 221.75 32.846 220.768 31.834C219.8 30.822 219.316 29.3773 219.316 27.5V14.124H216.72C216.47 14.124 216.258 14.0507 216.082 13.904C215.92 13.7427 215.84 13.508 215.84 13.2V11.462L219.47 10.956L220.438 4.29C220.496 4.04067 220.606 3.85 220.768 3.718C220.944 3.57133 221.164 3.498 221.428 3.498H223.606V11H229.942V14.124H223.606V27.214C223.606 28.094 223.818 28.754 224.244 29.194C224.684 29.6193 225.241 29.832 225.916 29.832C226.312 29.832 226.649 29.7807 226.928 29.678C227.221 29.5753 227.47 29.4653 227.676 29.348C227.881 29.216 228.057 29.0987 228.204 28.996C228.35 28.8933 228.482 28.842 228.6 28.842C228.746 28.842 228.856 28.8787 228.93 28.952C229.018 29.0107 229.106 29.1133 229.194 29.26L230.47 31.328C229.766 31.9733 228.93 32.472 227.962 32.824C226.994 33.176 225.989 33.352 224.948 33.352Z" fill="black"/>
</svg>
