<svg width="27" height="27" viewBox="0 0 27 27" fill="none" xmlns="http://www.w3.org/2000/svg">
<circle cx="13.5" cy="13.5" r="13" stroke="black"/>
<path d="M19 12.3311C17.9187 12.3338 16.8639 11.9851 15.9847 11.3343V15.8732C15.9844 16.7139 15.7359 17.5344 15.2724 18.2251C14.809 18.9158 14.1527 19.4437 13.3912 19.7383C12.6298 20.0328 11.7995 20.08 11.0115 19.8735C10.2234 19.6669 9.5151 19.2165 8.98127 18.5825C8.44744 17.9484 8.11353 17.161 8.02419 16.3254C7.93484 15.4898 8.09432 14.646 8.4813 13.9066C8.86828 13.1673 9.46431 12.5678 10.1897 12.1882C10.9151 11.8086 11.7353 11.6671 12.5405 11.7825V14.0655C12.172 13.9456 11.7763 13.9492 11.4099 14.0758C11.0436 14.2023 10.7252 14.4454 10.5004 14.7702C10.2755 15.095 10.1557 15.485 10.1579 15.8844C10.1602 16.2839 10.2845 16.6724 10.513 16.9944C10.7416 17.3165 11.0627 17.5556 11.4305 17.6777C11.7983 17.7998 12.194 17.7986 12.5611 17.6742C12.9282 17.5499 13.2479 17.3088 13.4746 16.9854C13.7013 16.6619 13.8234 16.2727 13.8233 15.8732V7H15.9847C15.9832 7.18874 15.9985 7.37721 16.0304 7.56305C16.1055 7.97791 16.2616 8.37256 16.4893 8.72287C16.717 9.07318 17.0113 9.37178 17.3544 9.6004C17.8426 9.93415 18.4148 10.112 19 10.1119V12.3311Z" fill="black"/>
</svg>
