<svg width="19" height="20" viewBox="0 0 19 20" fill="none" xmlns="http://www.w3.org/2000/svg">
<path d="M9.5 0.916664C8.5523 0.916664 7.62588 1.19769 6.83789 1.72421C6.04991 2.25072 5.43575 2.99908 5.07308 3.87464C4.71041 4.7502 4.61552 5.71365 4.8004 6.64314C4.98529 7.57263 5.44165 8.42642 6.11178 9.09655C6.78191 9.76668 7.6357 10.223 8.56519 10.4079C9.49468 10.5928 10.4581 10.4979 11.3337 10.1353C12.2093 9.77258 12.9576 9.15842 13.4841 8.37044C14.0106 7.58245 14.2917 6.65603 14.2917 5.70833C14.2917 4.4375 13.7868 3.21872 12.8882 2.32011C11.9896 1.4215 10.7708 0.916664 9.5 0.916664ZM9.5 8.58333C8.93138 8.58333 8.37553 8.41471 7.90274 8.09881C7.42994 7.7829 7.06145 7.33388 6.84385 6.80855C6.62624 6.28321 6.56931 5.70514 6.68024 5.14745C6.79117 4.58975 7.06499 4.07748 7.46707 3.6754C7.86914 3.27332 8.38142 2.99951 8.93912 2.88857C9.49681 2.77764 10.0749 2.83458 10.6002 3.05218C11.1256 3.26978 11.5746 3.63827 11.8905 4.11107C12.2064 4.58386 12.375 5.13971 12.375 5.70833C12.375 6.47083 12.0721 7.2021 11.5329 7.74126C10.9938 8.28043 10.2625 8.58333 9.5 8.58333ZM18.125 19.125V18.1667C18.125 16.3875 17.4182 14.6812 16.1602 13.4232C14.9021 12.1651 13.1958 11.4583 11.4167 11.4583H7.58333C5.80417 11.4583 4.09788 12.1651 2.83983 13.4232C1.58177 14.6812 0.875 16.3875 0.875 18.1667V19.125H2.79167V18.1667C2.79167 16.8958 3.2965 15.6771 4.19511 14.7784C5.09373 13.8798 6.3125 13.375 7.58333 13.375H11.4167C12.6875 13.375 13.9063 13.8798 14.8049 14.7784C15.7035 15.6771 16.2083 16.8958 16.2083 18.1667V19.125H18.125Z" fill="black"/>
</svg>
